Coordinates
version=1
nRows=5
nColumns=46
inDegrees=yes

Units are S.I. units (second, meters, Newtons, ...)
Angles are in degrees.

endheader
time	pelvis_tilt	pelvis_list	pelvis_rotation	pelvis_tx	pelvis_ty	pelvis_tz	bb_angle	bb_tx	bb_ty	bb_tz	hip_flexion_r	hip_adduction_r	hip_rotation_r	knee_angle_r	knee_angle_r_beta	ankle_angle_r	subtalar_angle_r	mtp_angle_r	crank_angle_r	hip_flexion_l	hip_adduction_l	hip_rotation_l	knee_angle_l	knee_angle_l_beta	ankle_angle_l	subtalar_angle_l	mtp_angle_l	crank_angle_l	lumbar_extension	lumbar_bending	lumbar_rotation	arm_flex_r	arm_add_r	arm_rot_r	elbow_flex_r	pro_sup_r	wrist_flex_r	wrist_dev_r	arm_flex_l	arm_add_l	arm_rot_l	elbow_flex_l	pro_sup_l	wrist_flex_l	wrist_dev_l
      0.00000000	    -28.63467663	      0.39217565	     -2.80950835	      0.05181575	      0.99545668	     -0.21069981	      0.00000000	      0.50000000	      0.00000000	      0.25000000	     93.66222141	     -7.20935181	     -4.74724728	     74.28651014	      1.29654419	      3.54002021	      1.00805575	      0.00000000	      0.00000000	     68.00460632	    -10.16207647	     -1.41434434	     78.37181918	      1.36784629	     -3.18645057	     -9.63445428	      0.00000000	      0.00000000	    -42.96200774	     -0.59905473	      2.49204309	     89.13671228	     -7.11813905	     27.93885499	     49.16851331	     27.66993619	      0.00000000	      0.00000000	     87.51277285	    -14.52856567	     28.73344940	     52.39857117	     28.56285508	      0.00000000	      0.00000000
      0.00500000	    -28.60851993	      0.40727960	     -2.84591308	      0.05177600	      0.99540013	     -0.21080013	      0.00000000	      0.50000000	      0.00000000	      0.25000000	     93.58198216	     -7.17133846	     -4.73589334	     74.21156611	      1.29523617	      3.58562043	      0.95881637	      0.00000000	      0.00000000	     68.03820107	    -10.21920255	     -1.47882630	     78.48657627	      1.36984917	     -3.11192621	     -9.49675581	      0.00000000	      0.00000000	    -42.96940104	     -0.63228373	      2.55562923	     89.12300304	     -7.00820589	     27.33275046	     48.62464559	     30.52041266	      0.00000000	      0.00000000	     87.70250590	    -14.64789672	     29.43408178	     51.50774526	     31.57066063	      0.00000000	      0.00000000
      0.01000000	    -28.60813533	      0.38897044	     -2.82650218	      0.05172611	      0.99537584	     -0.21097287	      0.00000000	      0.50000000	      0.00000000	      0.25000000	     93.50358431	     -7.19363173	     -4.75704122	     74.12239992	      1.29367993	      3.70209580	      1.00846605	      0.00000000	      0.00000000	     68.10769683	    -10.18295943	     -1.41271736	     78.57604064	      1.37141062	     -3.19299904	     -9.54983074	      0.00000000	      0.00000000	    -42.97583547	     -0.58229431	      2.51985137	     89.14257823	     -6.93485457	     27.31809354	     48.44516969	     30.89740207	      0.00000000	      0.00000000	     87.60061632	    -14.67557102	     29.06263965	     51.72343047	     31.99771040	      0.00000000	      0.00000000
      0.01500000	    -28.59560961	      0.33581432	     -2.84880857	      0.05175187	      0.99545264	     -0.21103201	      0.00000000	      0.50000000	      0.00000000	      0.25000000	     93.41428845	     -7.13492908	     -4.78784800	     74.04746566	      1.29237208	      3.83638319	      0.98375104	      0.00000000	      0.00000000	     68.13764722	    -10.18060340	     -1.32104676	     78.64853369	      1.37267586	     -3.26338103	     -9.62913570	      0.00000000	      0.00000000	    -43.16884819	     -0.53901890	      2.53285582	     89.04211242	     -6.87917826	     26.37990100	     49.37105898	     32.28186727	      0.00000000	      0.00000000	     87.32576029	    -14.70070094	     27.44608181	     52.93237800	     33.34763744	      0.00000000	      0.00000000
      0.02000000	    -28.56569835	      0.37430729	     -2.76931881	      0.05170160	      0.99505758	     -0.21131744	      0.00000000	      0.50000000	      0.00000000	      0.25000000	     93.40831090	     -7.24009607	     -4.68137017	     74.07980360	      1.29293648	      3.86608898	      1.15779765	      0.00000000	      0.00000000	     68.11047233	    -10.05035682	     -1.33672542	     78.63639938	      1.37246408	     -3.48509434	     -9.71576992	      0.00000000	      0.00000000	    -42.97035702	     -0.46762006	      2.31708376	     89.17650189	     -6.55958838	     27.23224341	     47.54280984	     32.71715529	      0.00000000	      0.00000000	     87.45024975	    -14.56211855	     28.09827605	     51.36287329	     33.84980529	      0.00000000	      0.00000000
